<svg width="22" height="22" viewBox="0 0 22 22" fill="none" xmlns="http://www.w3.org/2000/svg">
<path d="M10.9999 0.439941C5.17432 0.439941 0.439941 5.17432 0.439941 10.9999C0.439941 16.2893 4.34182 20.6656 9.42307 21.4306L9.97432 21.5131V13.1918H7.47869V11.5024H9.97432V9.25807C9.97432 7.87807 10.3043 6.96682 10.8537 6.39682C11.4031 5.82682 12.2131 5.53807 13.3418 5.53807C14.2437 5.53807 14.5943 5.59244 14.9281 5.63369V7.01557H13.7543C13.0887 7.01557 12.5412 7.38869 12.2562 7.88369C11.9731 8.37869 11.8849 8.97119 11.8849 9.57307V11.5006H14.8231L14.5624 13.1918H11.8849V21.5262L12.4287 21.4531C17.5831 20.7537 21.5599 16.3399 21.5599 10.9999C21.5599 5.17432 16.8256 0.439941 10.9999 0.439941ZM10.9999 1.39994C16.3081 1.39994 20.5999 5.69182 20.5999 10.9999C20.5999 15.6706 17.2568 19.5106 12.8449 20.3768V14.1518H15.3856L15.9424 10.5406H12.8449V9.57307C12.8449 9.07432 12.9368 8.62807 13.0887 8.35994C13.2424 8.09369 13.3906 7.97557 13.7543 7.97557H15.8881V4.76369L15.4718 4.70744C15.1849 4.66994 14.5268 4.57807 13.3418 4.57807C12.0443 4.57807 10.9306 4.93244 10.1618 5.73119C9.39307 6.52994 9.01244 7.72244 9.01244 9.25807V10.5424H6.51869V14.1518H9.01244V20.3449C4.67182 19.4262 1.39994 15.6199 1.39994 10.9999C1.39994 5.69182 5.69182 1.39994 10.9999 1.39994Z" fill="white"/>
</svg>
