<svg width="22" height="23" viewBox="0 0 22 23" fill="none" xmlns="http://www.w3.org/2000/svg">
<path d="M6.67994 0.5C3.23932 0.5 0.439941 3.41602 0.439941 7V16C0.439941 19.584 3.23932 22.5 6.67994 22.5H15.3199C18.7606 22.5 21.5599 19.584 21.5599 16V7C21.5599 3.41602 18.7606 0.5 15.3199 0.5H6.67994ZM6.67994 1.5H15.3199C18.2412 1.5 20.5999 3.95703 20.5999 7V16C20.5999 19.043 18.2412 21.5 15.3199 21.5H6.67994C3.75869 21.5 1.39994 19.043 1.39994 16V7C1.39994 3.95703 3.75869 1.5 6.67994 1.5ZM16.7599 4.5C16.2293 4.5 15.7999 4.94727 15.7999 5.5C15.7999 6.05274 16.2293 6.5 16.7599 6.5C17.2906 6.5 17.7199 6.05274 17.7199 5.5C17.7199 4.94727 17.2906 4.5 16.7599 4.5ZM10.9999 6C8.08994 6 5.71994 8.46875 5.71994 11.5C5.71994 14.5313 8.08994 17 10.9999 17C13.9099 17 16.2799 14.5313 16.2799 11.5C16.2799 8.46875 13.9099 6 10.9999 6ZM10.9999 7C13.3906 7 15.3199 9.00977 15.3199 11.5C15.3199 13.9902 13.3906 16 10.9999 16C8.60932 16 6.67994 13.9902 6.67994 11.5C6.67994 9.00977 8.60932 7 10.9999 7Z" fill="white"/>
</svg>
