<svg width="26" height="18" viewBox="0 0 26 18" fill="none" xmlns="http://www.w3.org/2000/svg">
<path d="M1.75 0.249999C1.30078 0.245116 0.88086 0.479491 0.651368 0.870116C0.426758 1.26074 0.426758 1.73926 0.651368 2.12988C0.88086 2.52051 1.30078 2.75488 1.75 2.75H24.25C24.6992 2.75488 25.1191 2.52051 25.3486 2.12988C25.5732 1.73926 25.5732 1.26074 25.3486 0.870116C25.1191 0.479491 24.6992 0.245116 24.25 0.249999H1.75ZM1.75 7.75C1.30078 7.74512 0.88086 7.97949 0.651368 8.37012C0.426758 8.76074 0.426758 9.23926 0.651368 9.62988C0.88086 10.0205 1.30078 10.2549 1.75 10.25H24.25C24.6992 10.2549 25.1191 10.0205 25.3486 9.62988C25.5732 9.23926 25.5732 8.76074 25.3486 8.37012C25.1191 7.97949 24.6992 7.74512 24.25 7.75H1.75ZM1.75 15.25C1.30078 15.2451 0.88086 15.4795 0.651368 15.8701C0.426758 16.2607 0.426758 16.7393 0.651368 17.1299C0.88086 17.5205 1.30078 17.7549 1.75 17.75H24.25C24.6992 17.7549 25.1191 17.5205 25.3486 17.1299C25.5732 16.7393 25.5732 16.2607 25.3486 15.8701C25.1191 15.4795 24.6992 15.2451 24.25 15.25H1.75Z" fill="white"/>
</svg>
