<svg width="30" height="30" viewBox="0 0 30 30" fill="none" xmlns="http://www.w3.org/2000/svg">
<path d="M13 3C7.48958 3 3 7.48958 3 13C3 18.5104 7.48958 23 13 23C15.3971 23 17.5977 22.1484 19.3229 20.7357L25.293 26.707C25.5443 26.9688 25.9167 27.0729 26.2669 26.9818C26.6172 26.8906 26.8906 26.6172 26.9818 26.2669C27.0729 25.9167 26.9688 25.5443 26.707 25.293L20.7357 19.3216C22.1484 17.5977 23 15.3971 23 13C23 7.48958 18.5104 3 13 3ZM13 5C17.4297 5 21 8.57031 21 13C21 17.4297 17.4297 21 13 21C8.57031 21 5 17.4297 5 13C5 8.57031 8.57031 5 13 5Z" fill="white"/>
</svg>
