<svg width="25" height="22" viewBox="0 0 25 22" fill="none" xmlns="http://www.w3.org/2000/svg">
<path d="M17.1095 0.734375C14.1193 0.734375 11.6876 3.16602 11.6876 6.15625C11.6876 6.33594 11.7325 6.51172 11.7501 6.6875C8.05286 6.33398 4.78333 4.55273 2.56262 1.82812C2.45911 1.69727 2.29895 1.62695 2.13098 1.63867C1.96497 1.65039 1.81653 1.74609 1.7345 1.89062C1.2677 2.69336 1.00012 3.61719 1.00012 4.60938C1.00012 5.81055 1.42981 6.91016 2.09387 7.8125C1.96497 7.75586 1.82434 7.72461 1.70325 7.65625C1.54895 7.57422 1.3634 7.57812 1.21301 7.66797C1.06262 7.75781 0.970826 7.91992 0.968873 8.09375V8.15625C0.968873 9.99805 1.922 11.5977 3.32825 12.5781C3.31262 12.5762 3.297 12.582 3.28137 12.5781C3.1095 12.5488 2.93567 12.6094 2.82044 12.7402C2.7052 12.8711 2.66809 13.0527 2.71887 13.2188C3.27747 14.9551 4.70325 16.2812 6.46887 16.7656C5.06262 17.6016 3.43176 18.0938 1.672 18.0938C1.29114 18.0938 0.925904 18.0742 0.562623 18.0312C0.328248 18 0.103639 18.1367 0.0255138 18.3594C-0.0545643 18.582 0.0333263 18.8301 0.234498 18.9531C2.49036 20.4004 5.16809 21.25 8.047 21.25C12.713 21.25 16.3732 19.3008 18.8282 16.5156C21.2833 13.7305 22.5626 10.1133 22.5626 6.73438C22.5626 6.5918 22.5509 6.45312 22.547 6.3125C23.463 5.61133 24.2814 4.78906 24.922 3.82812C25.049 3.64258 25.0353 3.39453 24.8888 3.22266C24.7443 3.05078 24.5001 2.99805 24.297 3.09375C24.0392 3.20898 23.7384 3.2207 23.4689 3.3125C23.8243 2.83789 24.129 2.32617 24.3126 1.75C24.3751 1.55273 24.3068 1.33594 24.1447 1.20703C23.9825 1.08008 23.756 1.06445 23.5782 1.17188C22.7247 1.67773 21.7794 2.0332 20.7814 2.25C19.8126 1.34375 18.5372 0.734375 17.1095 0.734375ZM17.1095 1.73438C18.3849 1.73438 19.5372 2.2793 20.3439 3.14062C20.465 3.26562 20.6427 3.31836 20.8126 3.28125C21.465 3.15234 22.0841 2.96289 22.6876 2.71875C22.34 3.1875 21.9103 3.58789 21.4064 3.89062C21.1779 4.00195 21.0704 4.26562 21.1544 4.50586C21.2365 4.74414 21.4865 4.88281 21.7345 4.82812C22.2345 4.76758 22.6798 4.56445 23.1564 4.4375C22.7286 4.90039 22.2599 5.31836 21.7501 5.6875C21.6115 5.78906 21.5353 5.95312 21.547 6.125C21.5548 6.32812 21.5626 6.5293 21.5626 6.73438C21.5626 9.85938 20.3634 13.252 18.0782 15.8438C15.7931 18.4355 12.4376 20.25 8.047 20.25C6.05286 20.25 4.17005 19.8086 2.46887 19.0312C4.57825 18.8691 6.52356 18.123 8.09387 16.8906C8.25794 16.7598 8.32239 16.541 8.25598 16.3418C8.18958 16.1426 8.00598 16.0059 7.797 16C6.14856 15.9707 4.7677 15.0117 4.03137 13.6562C4.05872 13.6562 4.08215 13.6562 4.1095 13.6562C4.60364 13.6562 5.09192 13.5938 5.547 13.4688C5.76575 13.4043 5.91614 13.2012 5.90833 12.9727C5.90051 12.7441 5.7384 12.5488 5.51575 12.5C3.73645 12.1406 2.40247 10.6914 2.09387 8.89062C2.59778 9.06445 3.1134 9.20117 3.672 9.21875C3.90051 9.23242 4.10754 9.08984 4.17786 8.87305C4.24817 8.65625 4.16223 8.41797 3.96887 8.29688C2.78137 7.50195 2.00012 6.14844 2.00012 4.60938C2.00012 4.03906 2.14856 3.51562 2.34387 3.01562C4.84387 5.75977 8.34387 7.58203 12.297 7.78125C12.4532 7.78906 12.6056 7.72461 12.7072 7.60547C12.8087 7.48437 12.8478 7.32422 12.8126 7.17188C12.7365 6.84766 12.6876 6.50391 12.6876 6.15625C12.6876 3.70703 14.6603 1.73438 17.1095 1.73438Z" fill="white"/>
</svg>
